<mxfile host="app.diagrams.net" agent="Mozilla/5.0 (Windows NT 10.0; Win64; x64) AppleWebKit/537.36 (KHTML, like Gecko) Chrome/130.0.0.0 Safari/537.36" version="24.8.4">
  <diagram id="C5RBs43oDa-KdzZeNtuy" name="Page-1">
    <mxGraphModel grid="1" page="1" gridSize="10" guides="1" tooltips="1" connect="1" arrows="1" fold="1" pageScale="1" pageWidth="827" pageHeight="1169" math="0" shadow="0">
      <root>
        <mxCell id="WIyWlLk6GJQsqaUBKTNV-0" />
        <mxCell id="WIyWlLk6GJQsqaUBKTNV-1" parent="WIyWlLk6GJQsqaUBKTNV-0" />
        <mxCell id="r8BsioyISQngbxwK9Buq-28" style="edgeStyle=orthogonalEdgeStyle;rounded=0;orthogonalLoop=1;jettySize=auto;html=1;exitX=1;exitY=0.3333333333333333;exitDx=0;exitDy=0;exitPerimeter=0;entryX=0;entryY=0.5;entryDx=0;entryDy=0;" edge="1" parent="WIyWlLk6GJQsqaUBKTNV-1" source="r8BsioyISQngbxwK9Buq-0" target="r8BsioyISQngbxwK9Buq-1">
          <mxGeometry relative="1" as="geometry" />
        </mxCell>
        <mxCell id="r8BsioyISQngbxwK9Buq-34" style="edgeStyle=orthogonalEdgeStyle;rounded=0;orthogonalLoop=1;jettySize=auto;html=1;exitX=1;exitY=0.3333333333333333;exitDx=0;exitDy=0;exitPerimeter=0;entryX=0;entryY=0.5;entryDx=0;entryDy=0;" edge="1" parent="WIyWlLk6GJQsqaUBKTNV-1" source="r8BsioyISQngbxwK9Buq-0" target="r8BsioyISQngbxwK9Buq-33">
          <mxGeometry relative="1" as="geometry" />
        </mxCell>
        <mxCell id="m3PtC9FU-cpjhkCLw65z-2" style="edgeStyle=orthogonalEdgeStyle;rounded=0;orthogonalLoop=1;jettySize=auto;html=1;exitX=1;exitY=0.3333333333333333;exitDx=0;exitDy=0;exitPerimeter=0;entryX=0;entryY=0.5;entryDx=0;entryDy=0;" edge="1" parent="WIyWlLk6GJQsqaUBKTNV-1" source="r8BsioyISQngbxwK9Buq-0" target="m3PtC9FU-cpjhkCLw65z-1">
          <mxGeometry relative="1" as="geometry" />
        </mxCell>
        <mxCell id="m3PtC9FU-cpjhkCLw65z-10" style="edgeStyle=orthogonalEdgeStyle;rounded=0;orthogonalLoop=1;jettySize=auto;html=1;exitX=1;exitY=0.3333333333333333;exitDx=0;exitDy=0;exitPerimeter=0;entryX=0.5;entryY=1;entryDx=0;entryDy=0;" edge="1" parent="WIyWlLk6GJQsqaUBKTNV-1" source="r8BsioyISQngbxwK9Buq-0" target="m3PtC9FU-cpjhkCLw65z-4">
          <mxGeometry relative="1" as="geometry">
            <Array as="points">
              <mxPoint x="100" y="450" />
              <mxPoint x="350" y="450" />
              <mxPoint x="350" y="540" />
              <mxPoint x="460" y="540" />
            </Array>
          </mxGeometry>
        </mxCell>
        <mxCell id="r8BsioyISQngbxwK9Buq-0" value="Usuário" style="shape=umlActor;verticalLabelPosition=bottom;verticalAlign=top;html=1;" vertex="1" parent="WIyWlLk6GJQsqaUBKTNV-1">
          <mxGeometry x="70" y="330" width="30" height="60" as="geometry" />
        </mxCell>
        <mxCell id="r8BsioyISQngbxwK9Buq-1" value="&lt;font style=&quot;vertical-align: inherit;&quot;&gt;&lt;font style=&quot;vertical-align: inherit;&quot;&gt;Criar Cadastro&lt;/font&gt;&lt;/font&gt;" style="ellipse;whiteSpace=wrap;html=1;direction=south;" vertex="1" parent="WIyWlLk6GJQsqaUBKTNV-1">
          <mxGeometry x="150" y="210" width="90" height="80" as="geometry" />
        </mxCell>
        <mxCell id="r8BsioyISQngbxwK9Buq-3" style="edgeStyle=orthogonalEdgeStyle;rounded=0;orthogonalLoop=1;jettySize=auto;html=1;exitX=0.5;exitY=1;exitDx=0;exitDy=0;" edge="1" parent="WIyWlLk6GJQsqaUBKTNV-1">
          <mxGeometry relative="1" as="geometry">
            <mxPoint x="200" y="290" as="sourcePoint" />
            <mxPoint x="200" y="290" as="targetPoint" />
          </mxGeometry>
        </mxCell>
        <mxCell id="r8BsioyISQngbxwK9Buq-41" style="edgeStyle=orthogonalEdgeStyle;rounded=0;orthogonalLoop=1;jettySize=auto;html=1;exitX=0;exitY=0.3333333333333333;exitDx=0;exitDy=0;exitPerimeter=0;entryX=0;entryY=0.5;entryDx=0;entryDy=0;" edge="1" parent="WIyWlLk6GJQsqaUBKTNV-1" target="r8BsioyISQngbxwK9Buq-1">
          <mxGeometry relative="1" as="geometry">
            <mxPoint x="202" y="160" as="targetPoint" />
            <mxPoint x="562" y="350" as="sourcePoint" />
            <Array as="points">
              <mxPoint x="533" y="350" />
              <mxPoint x="533" y="160" />
              <mxPoint x="200" y="160" />
            </Array>
          </mxGeometry>
        </mxCell>
        <mxCell id="m3PtC9FU-cpjhkCLw65z-5" style="edgeStyle=orthogonalEdgeStyle;rounded=0;orthogonalLoop=1;jettySize=auto;html=1;exitX=0;exitY=0.3333333333333333;exitDx=0;exitDy=0;exitPerimeter=0;entryX=1;entryY=0.5;entryDx=0;entryDy=0;" edge="1" parent="WIyWlLk6GJQsqaUBKTNV-1" source="r8BsioyISQngbxwK9Buq-31" target="m3PtC9FU-cpjhkCLw65z-4">
          <mxGeometry relative="1" as="geometry" />
        </mxCell>
        <mxCell id="m3PtC9FU-cpjhkCLw65z-6" style="edgeStyle=orthogonalEdgeStyle;rounded=0;orthogonalLoop=1;jettySize=auto;html=1;exitX=0;exitY=0.3333333333333333;exitDx=0;exitDy=0;exitPerimeter=0;entryX=0.5;entryY=1;entryDx=0;entryDy=0;" edge="1" parent="WIyWlLk6GJQsqaUBKTNV-1" source="r8BsioyISQngbxwK9Buq-31" target="m3PtC9FU-cpjhkCLw65z-1">
          <mxGeometry relative="1" as="geometry">
            <mxPoint x="562.3529411764706" y="600" as="targetPoint" />
            <Array as="points">
              <mxPoint x="540" y="350" />
              <mxPoint x="540" y="550" />
              <mxPoint x="200" y="550" />
            </Array>
          </mxGeometry>
        </mxCell>
        <mxCell id="m3PtC9FU-cpjhkCLw65z-8" style="edgeStyle=orthogonalEdgeStyle;rounded=0;orthogonalLoop=1;jettySize=auto;html=1;exitX=0;exitY=0.3333333333333333;exitDx=0;exitDy=0;exitPerimeter=0;entryX=1;entryY=1;entryDx=0;entryDy=0;" edge="1" parent="WIyWlLk6GJQsqaUBKTNV-1" source="r8BsioyISQngbxwK9Buq-31" target="r8BsioyISQngbxwK9Buq-33">
          <mxGeometry relative="1" as="geometry" />
        </mxCell>
        <mxCell id="r8BsioyISQngbxwK9Buq-31" value="Administrador&lt;div&gt;&lt;br&gt;&lt;/div&gt;" style="shape=umlActor;verticalLabelPosition=bottom;verticalAlign=top;html=1;" vertex="1" parent="WIyWlLk6GJQsqaUBKTNV-1">
          <mxGeometry x="550" y="330" width="30" height="60" as="geometry" />
        </mxCell>
        <mxCell id="r8BsioyISQngbxwK9Buq-33" value="Fazer Login" style="ellipse;whiteSpace=wrap;html=1;" vertex="1" parent="WIyWlLk6GJQsqaUBKTNV-1">
          <mxGeometry x="160" y="370" width="80" height="60" as="geometry" />
        </mxCell>
        <mxCell id="r8BsioyISQngbxwK9Buq-36" value="Verificar Senha" style="ellipse;whiteSpace=wrap;html=1;" vertex="1" parent="WIyWlLk6GJQsqaUBKTNV-1">
          <mxGeometry x="420" y="180" width="80" height="60" as="geometry" />
        </mxCell>
        <mxCell id="r8BsioyISQngbxwK9Buq-37" value="Exibir Erro de Login" style="ellipse;whiteSpace=wrap;html=1;" vertex="1" parent="WIyWlLk6GJQsqaUBKTNV-1">
          <mxGeometry x="420" y="270" width="80" height="60" as="geometry" />
        </mxCell>
        <mxCell id="r8BsioyISQngbxwK9Buq-38" value="&amp;lt;&amp;lt;Estender&amp;gt;&amp;gt;" style="endArrow=open;endSize=12;dashed=1;html=1;rounded=0;entryX=1;entryY=0.5;entryDx=0;entryDy=0;" edge="1" parent="WIyWlLk6GJQsqaUBKTNV-1" target="r8BsioyISQngbxwK9Buq-33">
          <mxGeometry x="0.0012" width="160" relative="1" as="geometry">
            <mxPoint x="420" y="299.5" as="sourcePoint" />
            <mxPoint x="370" y="299.5" as="targetPoint" />
            <mxPoint as="offset" />
          </mxGeometry>
        </mxCell>
        <mxCell id="r8BsioyISQngbxwK9Buq-39" value="&amp;lt;&amp;lt;Incluir&amp;gt;&amp;gt;" style="endArrow=open;endSize=12;dashed=1;html=1;rounded=0;entryX=0.038;entryY=0.65;entryDx=0;entryDy=0;entryPerimeter=0;" edge="1" parent="WIyWlLk6GJQsqaUBKTNV-1" source="r8BsioyISQngbxwK9Buq-33" target="r8BsioyISQngbxwK9Buq-36">
          <mxGeometry width="160" relative="1" as="geometry">
            <mxPoint x="270" y="350" as="sourcePoint" />
            <mxPoint x="310" y="240" as="targetPoint" />
            <Array as="points">
              <mxPoint x="310" y="310" />
            </Array>
          </mxGeometry>
        </mxCell>
        <mxCell id="m3PtC9FU-cpjhkCLw65z-1" value="Listar Usuário" style="ellipse;whiteSpace=wrap;html=1;" vertex="1" parent="WIyWlLk6GJQsqaUBKTNV-1">
          <mxGeometry x="160" y="460" width="80" height="60" as="geometry" />
        </mxCell>
        <mxCell id="m3PtC9FU-cpjhkCLw65z-4" value="Deletar Usuário" style="ellipse;whiteSpace=wrap;html=1;" vertex="1" parent="WIyWlLk6GJQsqaUBKTNV-1">
          <mxGeometry x="420" y="460" width="80" height="60" as="geometry" />
        </mxCell>
      </root>
    </mxGraphModel>
  </diagram>
</mxfile>
